<mxfile host="app.diagrams.net" modified="2023-10-20T09:07:39.538Z" agent="Mozilla/5.0 (Windows NT 10.0; Win64; x64) AppleWebKit/537.36 (KHTML, like Gecko) Chrome/118.0.0.0 Safari/537.36 Edg/118.0.2088.57" version="22.0.5" etag="SzFnV5FVpAIHre8cxpTo" type="github">
  <diagram name="Page-1" id="hhLtj6RdhTId1kYDejC7">
    <mxGraphModel>
      <root>
        <mxCell id="0" />
        <mxCell id="1" parent="0" />
      </root>
    </mxGraphModel>
  </diagram>
</mxfile>
